<svg width="64" height="64" viewBox="0 0 680 680" role="img" xmlns="http://www.w3.org/2000/svg">
  <title>Favicon laptop — Alexandre Garcia</title>
  <defs>
    <linearGradient id="bodyG" x1="0%" y1="0%" x2="100%" y2="100%">
      <stop offset="0%" style="stop-color:#2a2d36"/>
      <stop offset="100%" style="stop-color:#1c1f26"/>
    </linearGradient>
    <linearGradient id="screenG" x1="0%" y1="0%" x2="0%" y2="100%">
      <stop offset="0%" style="stop-color:#1a2744"/>
      <stop offset="100%" style="stop-color:#0d1117"/>
    </linearGradient>
    <clipPath id="sc">
      <rect x="115" y="60" width="450" height="310" rx="6"/>
    </clipPath>
  </defs>
  <rect x="60" y="20" width="560" height="400" rx="28" fill="url(#bodyG)" stroke="#3a3d45" stroke-width="6"/>
  <rect x="90" y="45" width="500" height="350" rx="14" fill="#111318" stroke="#252830" stroke-width="4"/>
  <rect x="115" y="60" width="450" height="310" rx="8" fill="url(#screenG)"/>
  <rect x="115" y="60" width="58" height="310" fill="#0a0d12" clip-path="url(#sc)"/>
  <text x="144" y="118" text-anchor="middle" font-family="'Courier New', monospace" font-size="28" fill="#3a4050">1</text>
  <text x="144" y="166" text-anchor="middle" font-family="'Courier New', monospace" font-size="28" fill="#3a4050">2</text>
  <text x="144" y="214" text-anchor="middle" font-family="'Courier New', monospace" font-size="28" fill="#3a4050">3</text>
  <text x="144" y="262" text-anchor="middle" font-family="'Courier New', monospace" font-size="28" fill="#3a4050">4</text>
  <text x="144" y="310" text-anchor="middle" font-family="'Courier New', monospace" font-size="28" fill="#2563a0">5</text>
  <text x="188" y="118" font-family="'Courier New', monospace" font-size="32" fill="#569cd6">const</text>
  <text x="298" y="118" font-family="'Courier New', monospace" font-size="32" fill="#9cdcfe"> dev</text>
  <text x="364" y="118" font-family="'Courier New', monospace" font-size="32" fill="#d4d4d4"> = {</text>
  <text x="188" y="166" font-family="'Courier New', monospace" font-size="32" fill="#9cdcfe">  name:</text>
  <text x="338" y="166" font-family="'Courier New', monospace" font-size="32" fill="#ce9178"> "AG",</text>
  <text x="188" y="214" font-family="'Courier New', monospace" font-size="32" fill="#9cdcfe">  stack:</text>
  <text x="352" y="214" font-family="'Courier New', monospace" font-size="32" fill="#ce9178"> [...],</text>
  <text x="188" y="262" font-family="'Courier New', monospace" font-size="32" fill="#d4d4d4">  ...</text>
  <rect x="173" y="288" width="390" height="38" rx="3" fill="#1a2744" opacity="0.7"/>
  <text x="188" y="316" font-family="'Courier New', monospace" font-size="32" fill="#4fc3f7">  available: true</text>
  <rect x="518" y="292" width="8" height="28" rx="2" fill="#4fc3f7" opacity="0.9"/>
  <circle cx="340" cy="48" r="8" fill="#1e2129"/>
  <circle cx="340" cy="48" r="4" fill="#252830"/>
  <rect x="130" y="418" width="420" height="26" rx="10" fill="#252830" stroke="#3a3d45" stroke-width="4"/>
  <line x1="160" y1="431" x2="520" y2="431" stroke="#378ADD" stroke-width="4" opacity="0.5"/>
  <rect x="50" y="442" width="580" height="160" rx="18" fill="#1c1f26" stroke="#3a3d45" stroke-width="6"/>
  <rect x="76" y="460" width="528" height="120" rx="10" fill="#111318" stroke="#252830" stroke-width="3"/>
  <rect x="92" y="470" width="34" height="18" rx="3" fill="#1c2030"/>
  <rect x="132" y="470" width="34" height="18" rx="3" fill="#1c2030"/>
  <rect x="172" y="470" width="34" height="18" rx="3" fill="#1c2030"/>
  <rect x="212" y="470" width="34" height="18" rx="3" fill="#1c2030"/>
  <rect x="252" y="470" width="34" height="18" rx="3" fill="#1c2030"/>
  <rect x="292" y="470" width="34" height="18" rx="3" fill="#1c2030"/>
  <rect x="332" y="470" width="34" height="18" rx="3" fill="#1c2030"/>
  <rect x="372" y="470" width="34" height="18" rx="3" fill="#1c2030"/>
  <rect x="412" y="470" width="34" height="18" rx="3" fill="#1c2030"/>
  <rect x="452" y="470" width="34" height="18" rx="3" fill="#378ADD" opacity="0.55"/>
  <rect x="492" y="470" width="48" height="18" rx="3" fill="#1c2030"/>
  <rect x="92" y="496" width="34" height="18" rx="3" fill="#1c2030"/>
  <rect x="132" y="496" width="34" height="18" rx="3" fill="#1c2030"/>
  <rect x="172" y="496" width="34" height="18" rx="3" fill="#1c2030"/>
  <rect x="212" y="496" width="34" height="18" rx="3" fill="#1c2030"/>
  <rect x="252" y="496" width="34" height="18" rx="3" fill="#1c2030"/>
  <rect x="292" y="496" width="34" height="18" rx="3" fill="#1c2030"/>
  <rect x="332" y="496" width="34" height="18" rx="3" fill="#1c2030"/>
  <rect x="372" y="496" width="34" height="18" rx="3" fill="#1c2030"/>
  <rect x="412" y="496" width="128" height="18" rx="3" fill="#1e2433" stroke="#378ADD" stroke-width="1.5" stroke-opacity="0.4"/>
  <rect x="260" y="522" width="160" height="10" rx="5" fill="#161920" stroke="#2a2d36" stroke-width="2"/>
  <line x1="120" y1="604" x2="560" y2="604" stroke="#378ADD" stroke-width="3" opacity="0.2"/>
</svg>
