<?xml version="1.0" encoding="UTF-8" standalone="no"?>
<!-- Created with Inkscape (http://www.inkscape.org/) -->

<svg
   version="1.1"
   id="svg1"
   width="224"
   height="224"
   viewBox="0 0 224 224"
   sodipodi:docname="linkedin branco.png"
   xmlns:inkscape="http://www.inkscape.org/namespaces/inkscape"
   xmlns:sodipodi="http://sodipodi.sourceforge.net/DTD/sodipodi-0.dtd"
   xmlns="http://www.w3.org/2000/svg"
   xmlns:svg="http://www.w3.org/2000/svg">
  <defs
     id="defs1" />
  <sodipodi:namedview
     id="namedview1"
     pagecolor="#ffffff"
     bordercolor="#000000"
     borderopacity="0.25"
     inkscape:showpageshadow="2"
     inkscape:pageopacity="0.0"
     inkscape:pagecheckerboard="0"
     inkscape:deskcolor="#d1d1d1" />
  <g
     inkscape:groupmode="layer"
     inkscape:label="Image"
     id="g1">
    <path
       style="fill:#000000"
       d="M 98.303335,221.00989 C 52.687112,214.55392 17.302602,183.05409 5.2467754,138.16954 2.9461313,129.6041 2.6495729,126.61597 2.6495729,112 c 0,-14.615968 0.2965584,-17.604104 2.5972025,-26.169539 C 16.143915,45.259767 45.36501,16.04654 85.830461,5.2684741 94.228821,3.0315515 97.603395,2.6847352 111.5,2.6303287 c 14.92928,-0.05845 16.78099,0.1486215 27.67048,3.0943036 19.89291,5.3811687 36.0823,14.6742767 50.25646,28.8484317 14.22614,14.226139 24.02694,31.701501 29.12247,51.926936 2.39439,9.503941 2.77159,12.972077 2.77342,25.5 0.002,16.23726 -2.24687,27.75025 -8.2286,42.119 -7.01878,16.85988 -20.80611,34.48337 -36.01627,46.03736 -9.36448,7.11347 -26.63656,15.19835 -39.05851,18.28287 -11.70343,2.9061 -29.2989,4.04499 -39.716115,2.57066 z M 82,129 V 94 H 70.5 59 v 35 35 H 70.5 82 Z m 36,13.2344 c 0,-19.17002 0.2179,-22.17191 1.82727,-25.17274 3.47629,-6.48191 11.73992,-8.84243 17.87012,-5.10461 C 142.89514,115.12631 144,120.77531 144,144.1815 V 164 h 11.07469 11.07469 L 165.82469,138.25 165.5,112.5 162.68644,106.77041 C 157.87074,96.963635 151.08222,93 139.10186,93 c -7.77826,0 -12.42402,1.932985 -17.27524,7.18781 L 118,104.33278 V 99.16639 94 L 106.75,94.0033 95.5,94.0066 95.4032,129.00333 95.306407,164 H 106.6532 118 Z M 74.185724,82.965167 C 84.511063,80.097388 86.20315,66.695097 76.842777,61.919791 72.112094,59.506377 68.42921,59.488269 63.984398,61.85657 53.363596,67.515585 57.246304,81.74602 70,83.904235 c 0.275,0.04654 2.158576,-0.376045 4.185724,-0.939068 z"
       id="path2" />
    <path
       style="fill:#ffffff;fill-opacity:1;stroke-width:0.272838"
       d="M 100.13155,221.10285 C 90.555749,220.00598 78.419972,216.70154 68.738362,212.55482 50.744264,204.84778 34.573961,191.82644 23.149878,175.84409 14.836757,164.214 8.8443131,151.27549 5.073633,136.81499 3.2187278,129.70145 2.7332588,124.55403 2.7332588,112 c 0,-12.559702 0.4850235,-17.698387 2.3434565,-24.828258 C 9.3774334,70.672055 16.822575,55.604999 26.810773,43.18759 38.080917,29.176454 52.426106,18.400164 69.629841,11.021357 76.957969,7.8782693 87.757967,4.6126107 94.401949,3.530869 98.096879,2.929278 121.15391,2.6293207 125.85611,3.1216702 c 7.08213,0.7415414 18.29562,3.8260104 27.47885,7.5585428 26.21496,10.655101 47.65631,31.735049 58.9916,57.997281 3.33463,7.725861 6.53727,18.3539 7.87509,26.133712 1.14292,6.646384 1.31464,20.656454 0.36785,30.012184 -2.398,23.69607 -13.82357,46.69507 -32.47614,65.37262 -8.3401,8.35126 -14.9357,13.12292 -25.61833,18.53386 -18.31109,9.27488 -32.98474,12.74363 -53.47625,12.6414 -3.75152,-0.0187 -7.74178,-0.1395 -8.86723,-0.26842 z M 82.124239,129.05238 V 93.992692 H 70.528624 58.933009 v 35.059688 35.05968 h 11.595615 11.595615 z m 36.017311,17.257 c 0.004,-24.26012 0.24415,-26.9954 2.67968,-30.4807 1.27988,-1.83153 3.84091,-3.83886 5.9605,-4.67182 2.30246,-0.90482 6.64881,-0.91172 8.89578,-0.0141 4.12134,1.64636 6.14412,4.6035 7.11844,10.40659 0.76524,4.55778 0.98113,10.40069 0.98546,26.66991 l 0.004,15.89282 h 11.18636 11.18635 l -0.002,-6.61632 c -10e-4,-3.63898 -0.1278,-15.31226 -0.28142,-25.94063 l -0.27932,-19.3243 -1.79361,-3.59409 c -2.42473,-4.85873 -4.34035,-7.67126 -6.77092,-9.941152 -2.1562,-2.013648 -5.15605,-3.766611 -7.78859,-4.55126 -4.12079,-1.228232 -11.23976,-1.601824 -15.70051,-0.823935 -4.85495,0.846632 -7.8899,2.671558 -12.49912,7.515757 l -2.9039,3.05195 V 98.940385 93.992692 H 106.85652 95.574178 l -0.175222,2.250913 c -0.09637,1.238003 -0.175958,17.014865 -0.176859,35.059685 l -0.0016,32.80877 h 11.459193 11.4592 z M 73.396964,83.33269 c 5.416058,-1.500868 8.667447,-4.831268 9.547639,-9.779654 0.337129,-1.895319 0.05184,-4.443159 -0.69864,-6.239303 C 80.759249,63.755529 76.65731,60.907 71.857309,60.099486 c -2.305833,-0.387912 -4.611439,0.0577 -7.389932,1.428264 -2.732139,1.347702 -4.743662,3.229379 -5.751602,5.380335 -0.661589,1.411833 -0.737699,1.8839 -0.737699,4.575472 0,2.871319 0.04033,3.081593 0.931739,4.858235 1.579685,3.148409 4.36484,5.540879 8.041313,6.907549 2.097118,0.779566 3.851578,0.802253 6.445836,0.08335 z"
       id="path3" />
  </g>
</svg>
